<?xml version="1.0" standalone="no"?>
<!DOCTYPE svg PUBLIC "-//W3C//DTD SVG 20010904//EN"
 "http://www.w3.org/TR/2001/REC-SVG-20010904/DTD/svg10.dtd">
<svg version="1.0" xmlns="http://www.w3.org/2000/svg"
 width="600.000000pt" height="600.000000pt" viewBox="0 0 600.000000 600.000000"
 preserveAspectRatio="xMidYMid meet">
<metadata>
Created by potrace 1.14, written by Peter Selinger 2001-2017
</metadata>
<g transform="translate(0.000000,600.000000) scale(0.100000,-0.100000)"
fill="#000000" stroke="none">
<path d="M3048 5524 c-2 -1 -25 -5 -53 -8 -76 -10 -172 -34 -205 -51 -51 -26
-59 -48 -45 -113 15 -71 71 -282 125 -470 22 -78 40 -145 40 -148 0 -3 -78 -3
-172 0 -95 4 -243 9 -328 11 -85 3 -225 7 -310 10 -85 3 -225 7 -310 10 -85 3
-216 7 -290 10 -74 2 -236 7 -360 10 -124 3 -234 8 -245 10 -29 6 -401 -262
-548 -395 -199 -180 -211 -214 -131 -378 53 -110 143 -212 187 -212 62 0 191
145 394 441 71 105 100 139 116 140 28 1 165 -3 242 -6 33 -1 157 -6 275 -10
118 -3 258 -8 310 -10 173 -6 453 -16 590 -20 74 -2 203 -7 285 -10 309 -11
445 -15 605 -20 91 -3 219 -7 285 -10 66 -3 194 -7 285 -10 91 -3 219 -7 285
-9 66 -3 203 -7 305 -11 102 -3 237 -8 300 -10 63 -3 201 -7 305 -11 105 -3
192 -6 195 -6 25 -2 49 4 65 17 337 254 559 472 580 567 6 23 0 40 -27 81 -76
114 -174 195 -245 203 -45 5 -50 3 -87 -32 -21 -21 -59 -66 -84 -99 -26 -33
-50 -61 -54 -63 -4 -2 -8 -10 -8 -17 0 -7 -4 -15 -8 -17 -4 -1 -41 -50 -82
-108 -40 -58 -79 -110 -86 -115 -6 -6 -47 -10 -90 -9 -44 1 -218 5 -389 8
-170 4 -418 9 -550 12 -132 2 -334 7 -450 9 -115 2 -263 5 -328 6 l-117 2 19
31 c10 17 60 98 110 180 114 183 224 393 246 470 16 54 16 59 0 76 -22 24
-103 55 -170 65 -45 7 -371 15 -377 9z"/>
<path d="M1927 4244 c-1 -1 -34 -5 -74 -8 -305 -28 -584 -205 -738 -467 -35
-61 -87 -197 -99 -259 -3 -19 -9 -46 -12 -60 -10 -45 -12 -254 -3 -310 5 -30
11 -69 14 -87 9 -59 58 -186 98 -255 94 -164 241 -273 435 -323 95 -24 137
-29 257 -28 344 4 602 206 690 543 22 84 22 225 0 310 -50 194 -204 360 -384
416 -67 21 -204 25 -281 8 -174 -37 -318 -162 -345 -299 -30 -157 38 -351 159
-455 61 -52 89 -64 152 -65 51 0 66 4 97 28 98 74 97 219 0 282 -37 24 -60 59
-68 104 -5 30 -3 33 37 51 51 23 126 26 171 6 71 -30 137 -141 137 -231 0 -80
-60 -208 -127 -272 -102 -96 -343 -109 -503 -28 -124 63 -198 225 -198 433 0
286 141 491 403 583 77 27 124 34 230 33 172 -1 337 -76 475 -215 111 -112
173 -226 205 -380 16 -72 21 -244 10 -304 -27 -151 -69 -265 -146 -405 -37
-66 -104 -149 -153 -189 -41 -33 -157 -155 -196 -206 -364 -472 -282 -1153
185 -1525 234 -186 495 -235 819 -155 203 50 370 151 474 288 68 89 125 213
139 300 3 18 8 52 13 75 12 66 4 260 -14 323 -57 207 -208 389 -405 488 -102
52 -172 71 -279 77 -225 12 -433 -110 -536 -314 -110 -219 -59 -532 110 -667
168 -135 429 -105 543 62 51 75 77 217 56 314 -28 133 -190 176 -291 78 -35
-34 -48 -74 -47 -144 1 -100 -68 -48 -82 61 -14 104 34 197 125 242 52 26 62
28 121 21 147 -18 294 -139 344 -284 19 -57 22 -175 5 -249 -44 -194 -189
-311 -435 -351 -208 -34 -356 13 -500 160 -90 92 -98 103 -150 210 -56 114
-78 205 -77 323 1 295 182 572 466 711 129 63 213 84 346 87 140 2 264 -16
385 -58 168 -59 258 -73 450 -73 187 0 245 9 370 58 291 113 528 387 595 687
23 105 25 126 24 255 0 171 -21 253 -107 435 -74 155 -209 312 -350 407 -139
93 -281 134 -442 129 -112 -4 -134 -8 -220 -37 -299 -102 -499 -376 -510 -699
-9 -234 95 -445 292 -598 140 -107 339 -147 488 -97 118 40 250 146 310 249
35 60 65 165 65 226 -1 253 -248 457 -497 411 -115 -21 -173 -83 -173 -184 0
-57 41 -121 95 -146 31 -15 56 -18 110 -15 73 4 92 -3 112 -41 22 -40 -29
-120 -99 -156 -67 -34 -140 -21 -218 41 -48 38 -116 138 -131 193 -56 208 88
449 298 498 48 11 138 14 181 5 38 -8 129 -53 169 -83 119 -90 226 -251 268
-403 22 -82 23 -215 1 -300 -60 -237 -235 -420 -456 -477 -71 -18 -215 -22
-320 -9 -129 16 -326 98 -430 178 -69 54 -171 161 -217 228 -62 91 -121 239
-142 355 -16 95 -20 109 -41 179 -125 402 -496 715 -890 751 -91 9 -140 12
-143 9z"/>
</g>
</svg>
