<?xml version="1.0" encoding="UTF-8"?>
<svg id="Flat" xmlns="http://www.w3.org/2000/svg" version="1.1" viewBox="0 0 800 800">
  <defs>
    <style>
      .cls-1 {
        fill: #fff;
        stroke-width: 0px;
      }
    </style>
  </defs>
  <path class="cls-1" d="M262.5,710c-46.1,0-89.4-18-121.9-50.6-32.6-32.6-50.5-75.9-50.6-121.9v-275c0-46.1,18-89.4,50.6-121.9s75.9-50.5,121.9-50.6h275c46.1,0,89.4,18,121.9,50.6,32.6,32.6,50.5,75.9,50.6,121.9v275c0,46.1-18,89.4-50.6,121.9-32.6,32.6-75.9,50.5-121.9,50.6h-275ZM262.5,135c-70.3,0-127.5,57.3-127.5,127.5v275c0,70.3,57.3,127.5,127.5,127.5h275c70.3,0,127.5-57.3,127.5-127.5v-275c0-70.3-57.3-127.5-127.5-127.5h-275ZM400,547.5c-81.3,0-147.5-66.2-147.5-147.5s66.2-147.5,147.5-147.5c81.3.1,147.5,66.3,147.5,147.5s-66.2,147.5-147.5,147.5ZM400,297.5c-56.5,0-102.5,46-102.5,102.5s46,102.5,102.5,102.5c56.5,0,102.5-46.1,102.5-102.5s-46-102.5-102.5-102.5ZM562.5,272.5c-19.3,0-35-15.7-35-35s15.7-35,35-35,35,15.7,35,35-15.7,35-35,35Z"/>
  <path class="cls-1" d="M400,262.5c-75.9,0-137.5,61.6-137.5,137.5s61.6,137.5,137.5,137.5,137.5-61.6,137.5-137.5-61.6-137.4-137.5-137.5ZM400,512.5c-62.1,0-112.5-50.4-112.5-112.5s50.4-112.5,112.5-112.5,112.5,50.4,112.5,112.5-50.4,112.4-112.5,112.5ZM537.5,100h-275c-89.7,0-162.4,72.8-162.5,162.5v275c0,89.7,72.8,162.4,162.5,162.5h275c89.7,0,162.4-72.8,162.5-162.5v-275c0-89.7-72.8-162.4-162.5-162.5ZM675,537.5c0,75.9-61.6,137.4-137.5,137.5h-275c-75.9,0-137.4-61.6-137.5-137.5v-275c0-75.9,61.6-137.4,137.5-137.5h275c75.9,0,137.4,61.6,137.5,137.5v275ZM587.5,237.5c0,13.8-11.2,25-25,25s-25-11.2-25-25,11.2-25,25-25,25,11.2,25,25Z"/>
</svg>