<?xml version="1.0" encoding="UTF-8"?>
<svg id="Livello_2" data-name="Livello 2" xmlns="http://www.w3.org/2000/svg" version="1.1" viewBox="0 0 64 64">
  <defs>
    <style>
      .cls-1 {
        fill: #161616;
        stroke-width: 0px;
      }
    </style>
  </defs>
  <g id="Livello_1-2" data-name="Livello 1-2">
    <path class="cls-1" d="M48.2,0H15.8C7.1,0,0,7.1,0,15.8v32.4c0,8.7,7.1,15.8,15.8,15.8h32.4c8.7,0,15.8-7.1,15.8-15.8V15.8C64,7.1,56.9,0,48.2,0ZM47.9,20.2c-2.2,0-4.1-1.8-4.1-4.1s1.8-4.1,4.1-4.1,4.1,1.8,4.1,4.1-1.8,4.1-4.1,4.1h0ZM32,16.8c8.4,0,15.2,6.8,15.2,15.2s-6.8,15.2-15.2,15.2-15.2-6.8-15.2-15.2,6.8-15.2,15.2-15.2Z"/>
    <path class="cls-1" d="M32,41.2c5.1,0,9.2-4.1,9.2-9.2s-4.1-9.2-9.2-9.2-9.2,4.1-9.2,9.2h0c0,5.1,4.1,9.2,9.2,9.2Z"/>
  </g>
</svg>