<?xml version="1.0" encoding="UTF-8"?>
<svg id="Livello_1" data-name="Livello 1" xmlns="http://www.w3.org/2000/svg" version="1.1" viewBox="0 0 15 15">
  <defs>
    <style>
      .cls-1 {
        fill: #afafaf;
        stroke-width: 0px;
      }
    </style>
  </defs>
  <path class="cls-1" d="M14.2,0H.8C.4,0,0,.4,0,.8v13.4c0,.4.4.8.8.8h13.4c.4,0,.8-.4.8-.8V.8C15,.4,14.6,0,14.2,0ZM4.3,13.3H1.9v-7.7h2.4v7.7ZM3.1,4.6c-.7,0-1.4-.7-1.4-1.4s.6-1.4,1.4-1.4,1.4.6,1.4,1.4-.6,1.4-1.4,1.4ZM13.2,13.3h-2.4v-3.7c0-.9,0-2-1.3-2s-1.4,1-1.4,2v3.8h-2.4v-7.7h2.3v1.1h0c.3-.6,1.1-1.2,2.3-1.2,2.4,0,2.9,1.6,2.9,3.7v4.2Z"/>
</svg>