<?xml version="1.0" encoding="UTF-8"?>
<svg id="Livello_1" data-name="Livello 1" xmlns="http://www.w3.org/2000/svg" version="1.1" viewBox="0 0 15 15">
  <defs>
    <style>
      .cls-1 {
        fill: #fff;
        stroke-width: 0px;
      }
    </style>
  </defs>
  <path class="cls-1" d="M12.8.5H2.2c-1,0-1.7.7-1.7,1.7v10.6c0,.9.8,1.7,1.7,1.7h10.6c.9,0,1.7-.8,1.7-1.7V2.2c0-.9-.8-1.7-1.7-1.7ZM3.5,12.9h-.3c-.5,0-1-.4-1-1v-5.3c0-.5.4-1,1-1h.3c.5,0,1,.4,1,1v5.3c0,.5-.4,1-1,1ZM3.4,4.8c-.7,0-1.3-.7-1.3-1.3s.6-1.3,1.3-1.3,1.3.6,1.3,1.3-.6,1.3-1.3,1.3ZM12.8,12.9h-1.3c-.5,0-1-.4-1-1v-2.5c0-.8,0-1.9-1.2-1.9s-1.3.9-1.3,1.9v2.6c0,.5-.4,1-1,1h-.3c-.5,0-1-.4-1-1v-5.3c0-.5.4-1,1-1h1.2v1h0c.3-.6,1-1.1,2.2-1.1,2.2,0,2.7,1.5,2.7,3.5v3.9-.2h0Z"/>
  <path class="cls-1" d="M13.1,0H1.9C.9,0,0,.9,0,1.9v11.2c0,1,.8,1.8,1.8,1.8h11.2c1,0,1.8-.8,1.8-1.8V1.9c0-1-.8-1.8-1.8-1.8h.1ZM3.3,13.2h-.3c-.6,0-1-.5-1-1v-5.6c0-.6.5-1,1-1h.3c.6,0,1,.5,1,1v5.6c0,.6-.5,1-1,1ZM3.2,4.6c-.7,0-1.4-.7-1.4-1.4s.6-1.4,1.4-1.4,1.4.6,1.4,1.4-.6,1.4-1.4,1.4ZM13.1,13.2h-1.4c-.6,0-1-.5-1-1v-2.6c0-.9,0-2-1.3-2s-1.4,1-1.4,2v2.7c0,.6-.5,1-1,1h-.3c-.6,0-1-.5-1-1v-5.6c0-.6.5-1,1-1h1.3v1.1h0c.3-.6,1.1-1.2,2.3-1.2,2.4,0,2.9,1.6,2.9,3.7v4.1-.2h-.1Z"/>
</svg>