<?xml version="1.0" encoding="UTF-8"?><svg id="Livello_1" xmlns="http://www.w3.org/2000/svg" viewBox="0 0 1659.89 1661.68"><defs><style>.cls-1{fill:#aeaeae;}.cls-2{fill:#fefefe;}</style></defs><path class="cls-2" d="M973.83,776.49c-40.14,26.21-85.12,37.77-133.59,36.5-28.51-.74-42.63-11.93-33.85-40.77,40.09-131.72,81.83-262.97,137.46-389.12,20.37-46.19,54.47-54.22,95.95-24.81,48.43,34.34,77.02,79.93,72.55,142.54-12.39,108.6-39.08,210.71-138.52,275.66Z"/><path class="cls-2" d="M831.74,0C373.15,1.21,2.22,370.33,0,826.86c-2.25,465.46,383.45,835.48,832.48,834.82,451.81-.67,836.42-379.14,827.21-829.28C1669.64,382.48,1293.31-1.22,831.74,0ZM1348.66,1224.1c-18.21,22.32-44.15,33.9-68.07,47.89-66.78,39.04-136.72,67.19-216.63,61.07-52.48-4.02-91.79-27.13-117.44-73.4-36.36-65.56-40.69-136.89-37.59-209.38,2.23-52.2-2.68-102.78-29.89-148.73-7.38-12.45-15.84-25.25-26.72-34.44-27.81-23.47-58.13-14.21-66.88,21.31-33.24,134.91-78.44,267.27-89.09,407.08-2.35,30.92-19.13,44.43-48.35,45.23-24.96.68-49.93,1.05-74.89.91-79.8-.46-84.2-5.38-63.38-86.35,26.26-102.13,53.15-204.14,82.21-305.5,40.79-142.25,84.13-283.77,125.77-425.78,17.44-59.44,46.41-113.28,82.23-169.11-141.34-6.5-309.23,92.91-363.69,210.99-14.37,31.15-19.89,63.75-14.38,98.14,9.35,58.4,27.87,77.39,86.13,77.16,33.76-.13,34.3,11.46,20.68,35.82-44.8,80.06-184.76,116.12-260.8,66.89-50.4-32.63-69.05-98.2-52.43-178.67,27.24-131.84,115.72-211.16,231.06-264.19,132.13-60.76,273.03-86.65,417.84-92.51,76.03-3.07,152.04-5.5,227.42,8.68,82.84,15.59,158.79,45.49,186.85,132.97,30.28,94.37,3.62,179.89-62.96,251.98-57.21,61.94-132.09,96.47-208.39,127.96-43.57,17.98-44.33,20.52-13.84,55.41,31.37,35.9,53.51,76.5,65.65,122.94,13.43,51.34,33.24,100.26,62.85,144.66,45.43,68.12,101.78,86.17,178.7,57.65,10.99-4.08,21.84-8.51,32.76-12.76,7.27-2.83,15.09-3.72,20.17,2.83,6.83,8.81.82,16.25-4.9,23.25Z"/><path class="cls-1" d="M973.83,776.49c-40.14,26.21-85.12,37.77-133.59,36.5-28.51-.74-42.63-11.93-33.85-40.77,40.09-131.72,81.83-262.97,137.46-389.12,20.37-46.19,54.47-54.22,95.95-24.81,48.43,34.34,77.02,79.93,72.55,142.54-12.39,108.6-39.08,210.71-138.52,275.66Z"/><path class="cls-1" d="M831.74,0C373.15,1.21,2.22,370.33,0,826.86c-2.25,465.46,383.45,835.48,832.48,834.82,451.81-.67,836.42-379.14,827.21-829.28C1669.64,382.48,1293.31-1.22,831.74,0ZM1348.66,1224.1c-18.21,22.32-44.15,33.9-68.07,47.89-66.78,39.04-136.72,67.19-216.63,61.07-52.48-4.02-91.79-27.13-117.44-73.4-36.36-65.56-40.69-136.89-37.59-209.38,2.23-52.2-2.68-102.78-29.89-148.73-7.38-12.45-15.84-25.25-26.72-34.44-27.81-23.47-58.13-14.21-66.88,21.31-33.24,134.91-78.44,267.27-89.09,407.08-2.35,30.92-19.13,44.43-48.35,45.23-24.96.68-49.93,1.05-74.89.91-79.8-.46-84.2-5.38-63.38-86.35,26.26-102.13,53.15-204.14,82.21-305.5,40.79-142.25,84.13-283.77,125.77-425.78,17.44-59.44,46.41-113.28,82.23-169.11-141.34-6.5-309.23,92.91-363.69,210.99-14.37,31.15-19.89,63.75-14.38,98.14,9.35,58.4,27.87,77.39,86.13,77.16,33.76-.13,34.3,11.46,20.68,35.82-44.8,80.06-184.76,116.12-260.8,66.89-50.4-32.63-69.05-98.2-52.43-178.67,27.24-131.84,115.72-211.16,231.06-264.19,132.13-60.76,273.03-86.65,417.84-92.51,76.03-3.07,152.04-5.5,227.42,8.68,82.84,15.59,158.79,45.49,186.85,132.97,30.28,94.37,3.62,179.89-62.96,251.98-57.21,61.94-132.09,96.47-208.39,127.96-43.57,17.98-44.33,20.52-13.84,55.41,31.37,35.9,53.51,76.5,65.65,122.94,13.43,51.34,33.24,100.26,62.85,144.66,45.43,68.12,101.78,86.17,178.7,57.65,10.99-4.08,21.84-8.51,32.76-12.76,7.27-2.83,15.09-3.72,20.17,2.83,6.83,8.81.82,16.25-4.9,23.25Z"/><path class="cls-2" d="M1112.35,500.83c-12.39,108.6-39.08,210.71-138.52,275.66-40.14,26.21-85.12,37.77-133.59,36.5-28.51-.74-42.63-11.93-33.85-40.77,40.09-131.72,81.83-262.97,137.46-389.12,20.37-46.19,54.47-54.22,95.95-24.81,48.43,34.34,77.02,79.93,72.55,142.54Z"/><path class="cls-1" d="M1112.35,500.83c-12.39,108.6-39.08,210.71-138.52,275.66-40.14,26.21-85.12,37.77-133.59,36.5-28.51-.74-42.63-11.93-33.85-40.77,40.09-131.72,81.83-262.97,137.46-389.12,20.37-46.19,54.47-54.22,95.95-24.81,48.43,34.34,77.02,79.93,72.55,142.54Z"/></svg>