<?xml version="1.0" encoding="UTF-8"?>
<svg id="Livello_2" data-name="Livello 2" xmlns="http://www.w3.org/2000/svg" version="1.1" viewBox="0 0 90 63">
  <defs>
    <style>
      .cls-1 {
        fill: #afafaf;
        stroke-width: 0px;
      }
    </style>
  </defs>
  <g id="Livello_1-2" data-name="Livello 1-2">
    <path class="cls-1" d="M13.1,1.2C6.2,1.7.9,7.4.5,14.4c-.3,5.8-.5,12.4-.5,16.9s.3,11.3.6,17.1c.3,6.9,5.5,12.5,12.4,13.1,7.6.7,18.6,1.4,32.1,1.4s24.4-.7,32-1.4c6.9-.6,12.1-6.3,12.4-13.2.3-6.1.6-13.1.6-17.1s-.3-10.8-.6-16.9c-.3-7-5.6-12.7-12.6-13.3C69.4.6,58.6,0,45,0S20.6.6,13.1,1.2ZM36,17.9l23.2,13.4-23.2,13.4v-26.7Z"/>
  </g>
</svg>